<?xml version="1.0" standalone="no"?><!DOCTYPE svg PUBLIC "-//W3C//DTD SVG 1.1//EN" "http://www.w3.org/Graphics/SVG/1.1/DTD/svg11.dtd"><svg t="1640075537802" class="icon" viewBox="0 0 1616 1024" version="1.1" xmlns="http://www.w3.org/2000/svg" p-id="1792" xmlns:xlink="http://www.w3.org/1999/xlink" width="315.625" height="200"><defs><style type="text/css"></style></defs><path d="M541.642105 332.853895a40.96 40.96 0 0 0-23.983158-10.778948c-88.495158-0.808421-177.044211-0.107789-265.539368-1.024-17.354105-0.161684-21.180632 5.982316-21.018947 22.528 0.700632 85.800421 0.323368 171.600842 0.323368 257.347369 0 27.648-0.431158 55.349895 0.323368 82.997895 0.107789 4.365474 5.389474 12.288 8.461474 12.395789 27.486316 0.970105 55.134316 0.538947 83.267369 0.538947 0.323368-5.497263 0.754526-9.323789 0.754526-13.150315 0.107789-43.493053 0.323368-86.932211 0.107789-130.425264-0.053895-9.539368 0.808421-16.545684 12.826948-16.437894a11344.842105 11344.842105 0 0 0 137.701052 0.053894c10.078316 0 13.797053 4.042105 13.365895 14.174316-0.754526 12.934737-0.754526 25.977263 0.10779 38.912 1.131789 13.743158-4.203789 17.408-17.030737 17.138527-35.408842-0.754526-70.817684 0.215579-106.226527-0.592843-13.958737-0.323368-18.324211 4.581053-17.461894 18.53979 1.077895 19.132632 0.808421 38.373053 0 57.559579-0.485053 11.264 3.610947 14.767158 14.282105 14.659368 51.954526-0.377263 104.340211 3.557053 155.755789-1.994105 21.827368-2.371368 41.822316-23.875368 62.086737-37.510737 2.263579-1.509053 1.239579-8.569263 1.239579-13.042526 0.107789-23.174737-0.538947-46.295579 0.215579-69.416421 0.754526-25.114947 3.018105-50.391579-31.312842-66.613895 37.079579-14.120421 30.989474-40.744421 31.151158-64.997053a48.181895 48.181895 0 0 1 0.053895-8.461473c7.976421-42.630737-8.946526-75.506526-39.450948-102.4z m-54.218105 135.814737c-0.431158 4.311579-7.437474 11.479579-11.479579 11.533473-49.744842 0.808421-99.435789 0.538947-151.659789 0.538948 0-21.773474-0.538947-40.852211 0.485052-59.930948a14.012632 14.012632 0 0 1 9.916632-9.431579c47.589053-0.485053 95.178105-0.323368 142.713263 0.538948 3.557053 0 9.701053 7.006316 9.970526 11.102315a263.545263 263.545263 0 0 1 0.053895 45.648843z m855.578947-132.581053c-10.078316-9.485474-18.917053-14.821053-32.875789-14.713263-77.500632 0.538947-154.947368 0.269474-232.394105 0.269473h-30.073264a42.307368 42.307368 0 0 0-1.347368 5.928422l-0.485053 357.322105c0 9.808842 3.934316 12.719158 12.934737 12.557473 21.557895-0.431158 43.115789-1.239579 64.673684 0 16.491789 0.862316 21.881263-4.311579 21.665685-21.773473-0.808421-86.339368-0.377263-172.678737-0.377263-262.25179 28.672 0 55.727158 1.616842 82.512842-0.538947 22.204632-1.832421 39.019789 3.934316 49.744842 23.821474 4.527158 8.461474 9.216 18.108632 9.593263 27.378526 1.239579 29.318737 0.431158 58.745263 0.431158 88.064v52.762947H1169.515789v91.189895c6.197895 0.377263 11.587368 0.916211 16.976843 0.970105 59.823158 0 119.538526-0.485053 179.253894 0.377263 15.791158 0.215579 19.509895-5.389474 19.402106-20.641684-0.646737-74.482526-3.018105-149.180632 0.91621-223.447579 2.479158-47.535158-8.946526-85.153684-43.061895-117.274947z m-436.008421-14.336c-9.216 0-10.671158 5.335579-10.563368 13.150316 0.215579 25.923368-1.509053 52.008421 0.431158 77.824 2.533053 32.875789-13.150316 44.732632-41.337263 42.846316-27.378526-1.778526-54.972632-0.377263-81.488842-0.377264a20.911158 20.911158 0 0 0-2.263579 5.066106c-0.161684 75.021474-0.215579 150.096842-0.538948 225.118315 0 10.401684 5.389474 11.964632 13.689263 11.856843 26.570105-0.215579 53.086316-0.431158 79.656421 0.107789 12.557474 0.269474 16.114526-5.066105 15.898948-17.246316-0.538947-31.636211 0-63.218526 0.107789-94.854737 0.053895-42.361263 0.215579-44.624842 41.714527-41.552842 32.067368 2.371368 57.020632-5.820632 76.207157-31.797894 2.856421-3.880421 6.629053-8.515368 6.682948-12.773053 0.431158-58.583579 0.269474-117.221053 0.269474-177.313684-34.492632 0-66.506105 0.107789-98.519579-0.053895z m-166.80421 125.035789c-2.910316-6.790737-7.221895-13.850947-7.383579-20.911157a1876.075789 1876.075789 0 0 1-0.161684-89.626948c0.215579-11.695158-3.503158-16.060632-15.144421-15.737263a1205.625263 1205.625263 0 0 1-79.548632 0.053895c-13.689263-0.538947-16.653474 4.473263-16.491789 17.408 0.538947 50.122105 0.269474 100.352 0 150.528 0 18.000842 29.103158 53.463579 46.565052 54.110316 25.869474 0.970105 51.846737 0.269474 80.357053 0.269473 0-28.294737 0.485053-54.110316-0.377263-79.872-0.161684-5.497263-5.443368-10.671158-7.814737-16.222316zM808.421053 0C361.957053 0 0 229.268211 0 512 0 794.785684 361.957053 1024 808.421053 1024c446.464 0 808.421053-229.214316 808.421052-512S1254.885053 0 808.421053 0z m0 926.989474c-415.528421 0-752.370526-185.775158-752.370527-414.989474 0-229.160421 336.842105-414.989474 752.370527-414.989474 415.528421 0 752.370526 185.775158 752.370526 414.989474S1223.949474 926.989474 808.421053 926.989474z" p-id="1793"></path></svg>